<svg width="117.916260" height="119.467148" viewBox="0 0 117.916 119.467" fill="none" xmlns="http://www.w3.org/2000/svg" xmlns:xlink="http://www.w3.org/1999/xlink">
	<desc>
			Created with Pixso.
	</desc>
	<path id="path" d="M59 119.467C47.9543 119.467 39 110.542 39 99.5311L39 78L79 78L79 99.5311C79 110.542 70.0457 119.467 59 119.467Z" fill-rule="evenodd" fill="#E7CD9D"/>
	<circle id="circle" cx="58.594849" cy="98.594910" r="1.594904" fill="#331300"/>
	<path id="path" d="M0 57.9362C0 46.9256 8.95483 38 20.0012 38L40 38L40 77.8722L20.0012 77.8722C8.95483 77.8722 0 68.9467 0 57.9362Z" fill-rule="evenodd" fill="#E7CD9D"/>
	<ellipse id="circle" cx="19.594849" cy="57.594910" rx="1.594904" ry="1.594894" fill="#331300"/>
	<path id="path" d="M117.916 58.0001C117.916 46.9543 109.533 38 99.1914 38L39 38L39 78L99.1914 78C109.533 78 117.916 69.0457 117.916 58.0001Z" fill-rule="evenodd" fill="#E63946"/>
	<path id="path" d="M117.916 58.0001C117.916 46.9543 109.533 38 99.1914 38L39 38L39 78L99.1914 78C109.533 78 117.916 69.0457 117.916 58.0001ZM40.0005 39.0005L99.1914 39.0005C104.073 39.0005 108.243 40.8476 111.702 44.5417C115.178 48.2545 116.916 52.7407 116.916 58.0001C116.916 63.2595 115.178 67.7455 111.702 71.4584C108.243 75.1525 104.073 76.9995 99.1914 76.9995L40.0005 76.9995L40.0005 39.0005Z" fill-rule="evenodd" fill="#D60132"/>
	<path id="path" d="M59 0C47.954 0 39 8.38303 39 18.7241L39 77.3205L79 77.3205L79 18.7241C79 8.38303 70.046 0 59 0Z" fill-rule="evenodd" fill="#E63946"/>
	<path id="path" d="M59 0C47.954 0 39 8.38303 39 18.7241L39 77.3205L79 77.3205L79 18.7241C79 8.38303 70.046 0 59 0ZM40.0005 76.32L40.0005 18.7241C40.0005 13.8428 41.8475 9.67291 45.5415 6.21451C49.2544 2.73849 53.7405 1.00049 59 1.00049C64.2595 1.00049 68.7456 2.73849 72.4585 6.21451C76.1525 9.67291 77.9995 13.8428 77.9995 18.7241L77.9995 76.32L40.0005 76.32Z" fill-rule="evenodd" fill="#DC013A"/>
	<defs/>
</svg>
